:SAMPLES-PER-SECOND 30
:FRAME-RANGE 1-3358
:FULLY-SPECIFIED
:DEGREES
525
root  -6.30572 39.7107 -8.75213 3.34961 20.5114 0.511002
RightUpLeg  -8.2743 -8.93319 -9.26113
RightLeg  12.8477 -3.29449 -1.02378
RightFoot  -4.19563 -0.858126 13.2287
RightToes  -5.8209e-011 0 -3.6325e-017
Spine  10.0153 2.76464 6.83092
Spine1  -0.467893 5.34426 -10.4832
HEad  7.75807 -27.7912 0.989291
LeftShoulder1  0.847346 0.792484 -25.0328
LeftArm  -5.20769 14.9753 -17.7602
LeftForeArm  3.21772 -9.16268 -13.9149
LeftHand  0.295825 -0.914735 -5.38429
RightShoulder  6.36751 19.1034 21.7823
RightArm  -15.9778 22.6701 4.66165
RightForeArm  10.6046 34.6742 7.15772
RightHand  0.158293 5.73676 1.32349
LeftUpLeg  -10.0603 10.8042 0.702954
LeftLeg  18.0653 -6.0465 -1.97008
LeftFoot  -8.67264 0.0597543 -0.3283
LeftToes  -4.03819e-010 -8.71445e-011 8.52097e-011
526
root  -6.70198 39.8421 -8.32686 3.75137 23.0798 0.40358
RightUpLeg  -6.89373 -10.4405 -8.66118
RightLeg  11.4416 -4.39266 -0.506909
RightFoot  -4.3927 -0.788882 12.4529
RightToes  -5.8209e-011 0 -3.6325e-017
Spine  9.10321 2.46077 6.34158
Spine1  -0.0233675 4.65909 -8.77783
HEad  7.62126 -27.8204 0.247248
LeftShoulder1  0.768507 1.05958 -25.2268
LeftArm  -5.58357 18.2082 -17.5865
LeftForeArm  4.27726 -7.62754 -14.5474
LeftHand  0.379154 -1.24806 -6.5391
RightShoulder  6.16325 16.8258 24.0956
RightArm  -17.0076 20.9185 4.74473
RightForeArm  17.7672 40.2094 8.33092
RightHand  -0.0352915 5.93438 -0.691547
LeftUpLeg  -9.91572 11.4974 1.29728
LeftLeg  16.5102 -4.6589 -1.55786
LeftFoot  -7.52001 0.0841486 -1.16815
LeftToes  -4.03819e-010 -8.71445e-011 8.52097e-011
527
root  -7.01825 39.9414 -7.98591 4.20226 24.835 0.59111
RightUpLeg  -5.44716 -10.2269 -8.37934
RightLeg  9.40693 -6.48907 -0.1274
RightFoot  -4.60643 -0.736346 11.9384
RightToes  -5.8209e-011 0 -3.6325e-017
Spine  8.36627 2.17512 6.18959
Spine1  0.276572 4.1524 -7.82752
HEad  7.86617 -26.7289 -1.19714
LeftShoulder1  0.752337 1.12049 -25.3563
LeftArm  -7.82441 20.9875 -17.6424
LeftForeArm  6.15999 -4.50215 -15.3654
LeftHand  0.426681 -0.990585 -7.69805
RightShoulder  5.92674 15.6356 24.7953
RightArm  -17.1552 20.2558 5.21039
RightForeArm  18.8793 44.4949 9.70353
RightHand  -0.0523849 6.07941 -0.863403
LeftUpLeg  -9.6962 11.4274 1.54229
LeftLeg  15.05 -2.76285 -1.2046
LeftFoot  -6.48172 0.116371 -1.82477
LeftToes  -4.03819e-010 -8.71445e-011 8.52097e-011
528
root  -7.24832 40.0091 -7.73666 4.70294 25.5984 0.991364
RightUpLeg  -4.39658 -9.44197 -8.25735
RightLeg  7.46684 -8.23063 0.105466
RightFoot  -4.61326 -0.681642 11.0278
RightToes  -5.8209e-011 0 -3.6325e-017
Spine  7.87573 2.1023 6.69978
Spine1  0.355376 4.05411 -7.62146
HEad  7.87861 -25.1261 -2.40589
LeftShoulder1  0.740745 1.15952 -25.3881
LeftArm  -9.5659 23.1583 -17.984
LeftForeArm  7.05846 -1.43999 -15.8554
LeftHand  0.455238 -0.422969 -9.09309
RightShoulder  5.94037 15.9536 24.333
RightArm  -17.3293 20.7588 5.06458
RightForeArm  22.0189 46.8791 10.3805
RightHand  -0.0803114 6.34288 -1.13378
LeftUpLeg  -9.55469 11.9176 1.46802
LeftLeg  14.051 -1.47379 -1.03443
LeftFoot  -5.72768 0.149626 -2.35011
LeftToes  -4.03819e-010 -8.71445e-011 8.52097e-011
529
root  -7.40483 40.032 -7.59211 4.98703 25.5688 1.2552
RightUpLeg  -3.74674 -9.61171 -8.43554
RightLeg  6.14771 -7.83676 0.77667
RightFoot  -4.70501 -0.662852 10.8477
RightToes  -5.8209e-011 0 -3.6325e-017
Spine  8.17621 2.32146 8.12356
Spine1  -0.0647599 4.48641 -8.29924
HEad  7.58938 -23.5203 -3.62508
LeftShoulder1  0.704484 1.29044 -25.6264
LeftArm  -10.1768 24.8315 -18.7076
LeftForeArm  7.77598 0.0599183 -16.0012
LeftHand  0.471778 -0.225346 -9.78199
RightShoulder  5.99441 17.237 22.5942
RightArm  -18.6275 21.7694 4.54448
RightForeArm  26.0939 48.137 10.5815
RightHand  -0.10274 6.83634 -1.32561
LeftUpLeg  -9.80195 13.1002 1.36926
LeftLeg  14.2424 -1.31796 -0.889163
LeftFoot  -5.47326 0.198359 -3.22887
LeftToes  -4.03819e-010 -8.71445e-011 8.52097e-011
530
root  -7.46255 40.023 -7.47238 5.27461 25.5867 1.31233
RightUpLeg  -3.41944 -10.0179 -8.54062
RightLeg  5.34538 -7.50274 1.28249
RightFoot  -4.7889 -0.652937 10.8045
RightToes  -5.8209e-011 0 -3.6325e-017
Spine  8.1443 2.59721 10.1638
Spine1  -0.21836 5.08406 -9.37291
HEad  7.3188 -22.3061 -4.74354
LeftShoulder1  0.634811 1.52292 -25.8496
LeftArm  -10.6544 26.3185 -19.8657
LeftForeArm  8.30207 -0.177639 -15.8941
LeftHand  0.503054 -0.250002 -10.3794
RightShoulder  5.93654 18.5178 20.5031
RightArm  -19.6978 23.6717 3.60973
RightForeArm  25.6858 48.1412 10.6142
RightHand  0.083317 7.0218 0.420934
LeftUpLeg  -10.8189 15.0963 1.2252
LeftLeg  15.8436 -2.70555 -0.800794
LeftFoot  -5.82562 0.267697 -4.83066
LeftToes  -4.03819e-010 -8.71445e-011 8.52097e-011
531
root  -7.45619 39.9873 -7.37405 5.57292 25.9543 1.41528
RightUpLeg  -3.41467 -10.3196 -8.63238
RightLeg  5.33473 -7.5496 1.41058
RightFoot  -5.01354 -0.619276 10.5554
RightToes  -5.8209e-011 0 -3.6325e-017
Spine  7.99184 2.97925 11.6757
Spine1  -0.259902 5.63832 -9.83055
HEad  7.51163 -21.7332 -5.52755
LeftShoulder1  0.571427 1.73424 -26.1007
LeftArm  -10.8769 27.6076 -21.4497
LeftForeArm  8.53759 -1.56854 -15.6361
LeftHand  0.543084 -0.588583 -10.5248
RightShoulder  5.68578 19.9814 17.5197
RightArm  -20.0337 25.1804 3.51664
RightForeArm  23.5778 44.9145 9.52378
RightHand  0.199303 7.17117 1.47748
LeftUpLeg  -12.196 16.2271 1.25008
LeftLeg  18.417 -3.99256 -1.15982
LeftFoot  -6.78137 0.356973 -7.93781
LeftToes  -4.03819e-010 -8.71445e-011 8.52097e-011
532
root  -7.41598 39.9661 -7.28517 5.86327 26.6259 1.5276
RightUpLeg  -3.36541 -10.3297 -8.67468
RightLeg  5.38241 -8.10299 1.25327
RightFoot  -5.21225 -0.621557 10.9135
RightToes  -5.8209e-011 0 -3.6325e-017
Spine  8.08113 3.33574 13.2231
Spine1  -0.734212 6.2918 -11.1242
HEad  8.26888 -21.7536 -5.51552
LeftShoulder1  0.566532 1.75162 -26.1429
LeftArm  -10.2155 28.5622 -22.9124
LeftForeArm  7.63346 -3.74815 -15.2749
LeftHand  0.563158 -0.803906 -10.5082
RightShoulder  5.49795 21.3959 15.1789
RightArm  -18.7195 25.8189 3.74475
RightForeArm  23.6858 37.8031 7.23279
RightHand  0.197803 7.13475 1.46977
LeftUpLeg  -13.7025 16.8004 1.44296
LeftLeg  21.2675 -4.15457 -1.45735
LeftFoot  -7.90429 0.328618 -9.36194
LeftToes  -4.03819e-010 -8.71445e-011 8.52097e-011
533
root  -7.32562 39.9511 -7.19222 6.12076 27.6202 1.77751
RightUpLeg  -3.3495 -10.5179 -8.9682
RightLeg  5.9586 -8.72774 1.07532
RightFoot  -5.6504 -0.605626 11.373
RightToes  -5.8209e-011 0 -3.6325e-017
Spine  8.52706 3.58564 14.2416
Spine1  -1.71275 6.79696 -12.5758
HEad  9.16747 -22.2774 -4.7557
LeftShoulder1  0.553223 1.79676 -26.2204
LeftArm  -8.90757 28.8775 -23.9008
LeftForeArm  6.42674 -5.90114 -14.8274
LeftHand  0.585585 -1.1203 -10.3604
RightShoulder  5.49656 22.102 14.4949
RightArm  -13.4086 26.2965 3.90695
RightForeArm  20.9846 28.2929 4.97291
RightHand  0.301984 7.12262 2.43553
LeftUpLeg  -14.9757 16.6546 1.72821
LeftLeg  23.4782 -3.20893 -1.19778
LeftFoot  -8.65292 0.271861 -9.36508
LeftToes  -4.03819e-010 -8.71445e-011 8.52097e-011
534
root  -7.19464 39.9284 -7.10844 6.13541 29.1512 1.96846
RightUpLeg  -2.91665 -10.8326 -9.33848
RightLeg  6.53867 -9.74658 0.953387
RightFoot  -6.09542 -0.58949 11.9185
RightToes  -5.8209e-011 0 -3.6325e-017
Spine  8.61949 3.71946 14.6457
Spine1  -1.78308 7.05244 -13.0971
HEad  9.17127 -23.19 -4.03299
LeftShoulder1  0.566107 1.7774 -26.6169
LeftArm  -8.12769 28.1273 -24.7605
LeftForeArm  5.97179 -7.30819 -14.4032
LeftHand  0.600566 -1.41785 -10.1303
RightShoulder  5.4616 22.3772 14.0921
RightArm  -9.47166 26.2211 4.23592
RightForeArm  21.7977 18.1848 6.35924
RightHand  0.460668 7.04284 3.93177
LeftUpLeg  -15.9124 16.1676 2.34355
LeftLeg  24.6465 -2.15826 -0.750509
LeftFoot  -8.82134 0.244866 -8.72167
LeftToes  -4.03819e-010 -8.71445e-011 8.52097e-011
535
root  -7.00299 39.8892 -7.03451 6.19933 31.081 2.19052
RightUpLeg  -2.28156 -11.4109 -9.93001
RightLeg  7.0336 -10.7387 1.02367
RightFoot  -6.57984 -0.561879 12.3882
RightToes  -5.8209e-011 0 -3.6325e-017
Spine  8.47712 3.80815 14.7713
Spine1  -1.54518 7.19281 -13.2913
HEad  9.04173 -24.4998 -3.82639
LeftShoulder1  0.626277 1.61731 -27.0393
LeftArm  -6.71302 26.6613 -25.2108
LeftForeArm  5.80461 -8.18043 -14.177
LeftHand  0.589497 -1.57582 -9.7004
RightShoulder  5.43709 22.4192 13.9502
RightArm  -17.9267 25.3918 4.08555
RightForeArm  38.0292 5.95351 11.4334
RightHand  0.60662 7.1184 5.25258
LeftUpLeg  -16.6673 16.1339 3.05334
LeftLeg  24.3672 -1.96838 -0.643894
LeftFoot  -8.32507 0.287466 -9.01375
LeftToes  -4.03819e-010 -8.71445e-011 8.52097e-011
536
root  -6.75443 39.8408 -6.96634 6.31097 32.9209 2.45154
RightUpLeg  -1.5418 -12.0409 -10.6181
RightLeg  7.35766 -11.7928 1.14277
RightFoot  -7.09287 -0.531721 12.9769
RightToes  -5.8209e-011 0 -3.6325e-017
Spine  8.66553 3.84396 14.5204
Spine1  -1.7542 7.19742 -13.3105
HEad  8.88252 -25.5191 -3.85188
LeftShoulder1  0.648529 1.55968 -27.2058
LeftArm  -5.29461 25.2449 -25.287
LeftForeArm  6.34571 -8.96651 -13.9154
LeftHand  0.602276 -1.85149 -9.50805
RightShoulder  5.55991 22.7188 14.1955
RightArm  -15.4803 24.0095 4.66404
RightForeArm  44.8783 -2.40523 12.601
RightHand  0.774783 6.80143 6.99816
LeftUpLeg  -17.1067 17.1503 3.81768
LeftLeg  22.5558 -2.66478 -0.888285
LeftFoot  -7.59793 0.354181 -9.43198
LeftToes  -4.03819e-010 -8.71445e-011 8.52097e-011
537
root  -6.43515 39.7949 -6.85206 6.48872 34.7602 2.576
RightUpLeg  -0.466765 -12.4676 -11.1527
RightLeg  6.97367 -13.1431 1.33529
RightFoot  -7.45266 -0.515199 13.6161
RightToes  -5.8209e-011 0 -3.6325e-017
Spine  8.07038 3.71618 13.5991
Spine1  -1.34258 6.87925 -12.7665
HEad  8.27615 -26.0971 -3.26946
LeftShoulder1  0.618567 1.64653 -27.1495
LeftArm  -4.01077 24.6565 -25.0708
LeftForeArm  5.42771 -10.4381 -13.2857
LeftHand  0.613139 -2.00498 -9.46586
RightShoulder  5.7172 21.6345 15.8974
RightArm  -14.4259 23.553 4.97739
RightForeArm  48.8337 -1.38998 12.2727
RightHand  1.06883 5.71782 10.79
LeftUpLeg  -17.2712 18.0117 4.83962
LeftLeg  19.4818 -3.31435 -0.978299
LeftFoot  -6.71033 0.423412 -9.46303
LeftToes  -4.03819e-010 -8.71445e-011 8.52097e-011
